<svg xmlns="http://www.w3.org/2000/svg" version="1.1" xmlns:xlink="http://www.w3.org/1999/xlink" xmlns:svgjs="http://svgjs.dev/svgjs" width="1500" height="246" viewBox="0 0 1500 246"><g transform="matrix(1,0,0,1,-0.9090909090909918,-0.0971784655283443)"><svg viewBox="0 0 396 65" data-background-color="#ffffff" preserveAspectRatio="xMidYMid meet" height="246" width="1500" xmlns="http://www.w3.org/2000/svg" xmlns:xlink="http://www.w3.org/1999/xlink"><g id="tight-bounds" transform="matrix(1,0,0,1,0.2400000000000091,0.025677236826595617)"><svg viewBox="0 0 395.52 64.94864552634681" height="64.94864552634681" width="395.52"><g><svg viewBox="0 0 395.52 64.94864552634681" height="64.94864552634681" width="395.52"><g><svg viewBox="0 0 395.52 64.94864552634681" height="64.94864552634681" width="395.52"><g id="textblocktransform"><svg viewBox="0 0 395.52 64.94864552634681" height="64.94864552634681" width="395.52" id="textblock"><g><svg viewBox="0 0 395.52 64.94864552634681" height="64.94864552634681" width="395.52"><g transform="matrix(1,0,0,1,0,0)"><svg width="395.52" viewBox="4 -34.01 207.09 34.01" height="64.94864552634681" data-palette-color="#000000"><g class="wordmark-text-0" data-fill-palette-color="primary" id="text-0"><path d="M4-4.81L4-11.35Q4-12.35 4.38-13.22 4.76-14.09 5.41-14.75 6.05-15.41 6.93-15.78 7.81-16.16 8.79-16.16L8.79-16.16 21.19-16.16 21.19-21.19 5.49-21.19 5.49-26 21.19-26Q22.19-26 23.07-25.62 23.95-25.24 24.6-24.6 25.24-23.95 25.62-23.07 26-22.19 26-21.19L26-21.19 26 0 21.19 0 21.19-4.39Q21.12-3.49 20.7-2.69 20.29-1.88 19.64-1.28 18.99-0.68 18.16-0.34 17.33 0 16.41 0L16.41 0 8.79 0Q7.81 0 6.93-0.38 6.05-0.76 5.41-1.4 4.76-2.05 4.38-2.93 4-3.81 4-4.81L4-4.81ZM8.79-11.35L8.79-4.81 21.19-4.81 21.19-11.35 8.79-11.35ZM46.41 0L41.4 0 31-26 36.01-26 43.89-5.76 51.8-26 56.81-26 46.41 0ZM60.3-21.19L60.3-26 66.65-26 66.65-34.01 71.45-34.01 71.45-26 80-26 80-21.19 71.45-21.19 71.45-4.81 80-4.81 80 0 71.45 0Q70.48 0 69.6-0.38 68.72-0.76 68.06-1.4 67.4-2.05 67.02-2.93 66.65-3.81 66.65-4.81L66.65-4.81 66.65-21.19 60.3-21.19ZM110.49-21.19L110.49-4.81Q110.49-3.81 110.11-2.93 109.73-2.05 109.09-1.4 108.44-0.76 107.57-0.38 106.71 0 105.71 0L105.71 0 92.79 0Q91.81 0 90.93-0.38 90.06-0.76 89.41-1.4 88.76-2.05 88.38-2.93 88.01-3.81 88.01-4.81L88.01-4.81 88.01-21.19Q88.01-22.19 88.38-23.07 88.76-23.95 89.41-24.6 90.06-25.24 90.93-25.62 91.81-26 92.79-26L92.79-26 105.71-26Q106.71-26 107.57-25.62 108.44-25.24 109.09-24.6 109.73-23.95 110.11-23.07 110.49-22.19 110.49-21.19L110.49-21.19ZM105.71-21.19L92.79-21.19 92.79-4.81 105.71-4.81 105.71-21.19ZM150.09-21.19L139.1-21.19 139.1 0 134.29 0 134.29-21.19 123.28-21.19 123.28 0 118.5 0 118.5-26 123.28-26 123.28-21.41Q123.33-22.36 123.72-23.21 124.11-24.05 124.76-24.67 125.41-25.29 126.26-25.65 127.11-26 128.09-26L128.09-26 134.29-26Q135.24-26 136.1-25.65 136.95-25.29 137.61-24.67 138.27-24.05 138.67-23.21 139.08-22.36 139.1-21.41L139.1-21.41Q139.15-22.36 139.53-23.21 139.91-24.05 140.55-24.67 141.2-25.29 142.06-25.65 142.91-26 143.89-26L143.89-26 150.09-26Q151.09-26 151.97-25.62 152.85-25.24 153.49-24.6 154.14-23.95 154.52-23.07 154.9-22.19 154.9-21.19L154.9-21.19 154.9 0 150.09 0 150.09-21.19ZM162.9-4.81L162.9-11.35Q162.9-12.35 163.28-13.22 163.66-14.09 164.31-14.75 164.95-15.41 165.83-15.78 166.71-16.16 167.69-16.16L167.69-16.16 180.09-16.16 180.09-21.19 164.39-21.19 164.39-26 180.09-26Q181.09-26 181.97-25.62 182.85-25.24 183.5-24.6 184.14-23.95 184.52-23.07 184.9-22.19 184.9-21.19L184.9-21.19 184.9 0 180.09 0 180.09-4.39Q180.02-3.49 179.6-2.69 179.19-1.88 178.54-1.28 177.89-0.68 177.06-0.34 176.23 0 175.3 0L175.3 0 167.69 0Q166.71 0 165.83-0.38 164.95-0.76 164.31-1.4 163.66-2.05 163.28-2.93 162.9-3.81 162.9-4.81L162.9-4.81ZM167.69-11.35L167.69-4.81 180.09-4.81 180.09-11.35 167.69-11.35ZM191.39-21.19L191.39-26 197.74-26 197.74-34.01 202.55-34.01 202.55-26 211.09-26 211.09-21.19 202.55-21.19 202.55-4.81 211.09-4.81 211.09 0 202.55 0Q201.57 0 200.69-0.38 199.81-0.76 199.15-1.4 198.5-2.05 198.12-2.93 197.74-3.81 197.74-4.81L197.74-4.81 197.74-21.19 191.39-21.19Z" fill="#ffffff" data-fill-palette-color="primary"></path></g></svg></g></svg></g></svg></g></svg></g></svg></g><defs></defs></svg><rect width="395.52" height="64.94864552634681" fill="none" stroke="none" visibility="hidden"></rect></g></svg></g></svg>